
        <svg xmlns="http://www.w3.org/2000/svg" xmlns:xlink="http://www.w3.org/1999/xlink" version="1.1" width="3162.1621621621625" 
        height="717.4118367413296" viewBox="0 0 3162.1621621621625 717.4118367413296">
			
			<g transform="scale(8.108108108108109) translate(10, 10)">
				<defs id="SvgjsDefs2884"></defs><g id="SvgjsG2885" featureKey="S6ay6y-0" transform="matrix(0.06843288934019674,0,0,0.06843288934019674,0,0)" fill="#ec4899"><g xmlns="http://www.w3.org/2000/svg"><path d="M511.4,0C296.7,0,122.2,174.5,122.2,389.1c0,73,20.2,141.2,55.2,199.6c15.3-4,30.6-7.3,45.8-10.2   c-35.8-54.3-56.6-119.4-56.6-189.5c0-190.6,154.1-344.7,344.7-344.7c190.6,0,344.7,154,344.7,344.7c0,70-20.9,135.1-56.6,189.5   c15.3,2.9,30.6,6.3,45.9,10.2c35-58.4,55.2-126.7,55.2-199.6C900.5,174.5,726,0,511.4,0 M372.4,400.3c-27.6,0-50,22.3-50,50   c0,27.6,22.3,50,50,50c27.6,0,50-22.3,50-50C422.4,422.7,400.1,400.3,372.4,400.3 M650.4,400.3c-27.6,0-50,22.3-50,50   c0,27.6,22.3,50,50,50c27.6,0,50-22.3,50-50C700.4,422.7,678,400.3,650.4,400.3 M329.9,611.5c-91.5,0.3-182.7,23.5-273.1,68.8   l-12.3,6.1v80.7c14.2-5.9,29.2-9.5,44.5-10.6v-41.9c80.9-38.6,161.1-58.4,241.1-58.7L329.9,611.5L329.9,611.5L329.9,611.5z    M330,611.5l0,44.5c52.9-0.2,105.8,9,159.1,25.5c0,106.4,0,212.8,0,319.2h44.5c0-106.4,0-212.8,0-319.2   c53.2-16.5,106.2-25.7,159.1-25.5l0-44.5c-60.6-0.2-121.2,9.8-181.4,29.4c-60.2-19.6-120.8-29.6-181.4-29.4H330z M692.8,611.5V656   c80,0.3,160.2,20.1,241.1,58.7v41.8c15.3,1.2,30.3,4.8,44.5,10.8v-80.8l-12.3-6.1c-90.4-45.3-181.7-68.5-273.2-68.8h0L692.8,611.5z    M100.1,800.5C45.1,800.5,0,845.6,0,900.6c0,55,45.1,100.1,100.1,100.1c55,0,100.1-45.1,100.1-100.1   C200.1,845.6,155.1,800.5,100.1,800.5 M922.8,800.5c-55,0-100.1,45.1-100.1,100.1c0,55,45.1,100.1,100.1,100.1   s100.1-45.1,100.1-100.1C1022.9,845.6,977.8,800.5,922.8,800.5 M100.1,845c31,0,55.6,24.6,55.6,55.6c0,31-24.6,55.6-55.6,55.6   c-31,0-55.6-24.6-55.6-55.6C44.5,869.6,69.1,845,100.1,845 M922.8,845c31,0,55.6,24.6,55.6,55.6c0,31-24.6,55.6-55.6,55.6   s-55.6-24.6-55.6-55.6C867.2,869.6,891.8,845,922.8,845"></path></g></g><g id="SvgjsG2886" featureKey="j5pGhi-0" transform="matrix(1.9451893609736293,0,0,1.9451893609736293,86.44769517266528,5.2732740627355295)" fill="#ec4899"><path d="M4.7559 17.4121 l4.4238 0 l0 2.5879 l-7.3535 0 l0 -14.111 l2.9297 0 l0 11.523 z M20.48784375 14.834 l-0.029297 0.67383 l-7.4414 0 c0.11719 1.6699 1.2305 2.4707 2.5684 2.4707 c1.0059 0 1.7871 -0.46875 2.168 -1.3574 l2.5781 0.38086 c-0.66406 2.0313 -2.4707 3.1934 -4.7266 3.1934 c-3.2422 0 -5.3613 -1.9141 -5.3613 -5.2148 s2.1777 -5.2344 5.2734 -5.2344 c2.8418 0 4.9609 1.5723 4.9707 5.0879 z M15.53714375 11.7383 c-1.2793 0 -2.168 0.5957 -2.4414 1.9336 l4.6094 0 c-0.14648 -1.2793 -1.0156 -1.9336 -2.168 -1.9336 z M30.859375 17.2754 c0 1.2305 0.11719 2.0117 0.24414 2.4512 l0 0.27344 l-2.627 0 l-0.22461 -1.0938 c-0.75195 0.9082 -2.0508 1.2891 -3.2227 1.2891 c-1.582 0 -3.125 -0.70313 -3.125 -2.793 c0 -2.0801 1.5527 -2.7832 3.6523 -3.2422 l1.6504 -0.37109 c0.71289 -0.16602 0.9668 -0.41016 0.9668 -0.82031 c0 -0.98633 -0.89844 -1.2598 -1.6895 -1.2598 c-1.0156 0 -1.7871 0.40039 -1.9629 1.5332 l-2.4902 -0.44922 c0.41992 -2.0801 1.9434 -3.0273 4.6094 -3.0273 c2.0117 0 4.2188 0.5957 4.2188 3.623 l0 3.8867 z M25.908175 18.291 c1.3379 0 2.4121 -0.88867 2.4121 -2.8809 l-2.3828 0.67383 c-0.78125 0.18555 -1.3477 0.45898 -1.3477 1.1328 c0 0.72266 0.5957 1.0742 1.3184 1.0742 z M36.289071875 11.5527 c0.50781 -0.88867 1.8262 -1.709 3.2813 -1.709 l0 2.5098 c-2.1289 0 -3.1445 0.625 -3.1445 2.7539 l0 4.8926 l-2.832 0 l0 -10.039 l2.6953 0 l0 1.5918 z M47.148425 9.766 c2.4121 0 3.7402 1.25 3.7402 3.4766 l0 6.7578 l-2.8223 0 l0 -6.1523 c0 -1.3379 -0.83008 -1.8262 -1.7969 -1.8262 c-1.1621 0 -2.2168 0.58594 -2.2363 2.4414 l0 5.5371 l-2.8125 0 l0 -10.039 l2.8125 0 l0 1.1133 c0.70313 -0.83008 1.7871 -1.3086 3.1152 -1.3086 z M62.168203125 8.467 l-5.2344 0 l0 3.2031 l4.6387 0 l0 2.5488 l-4.6387 0 l0 3.1934 l5.2344 0 l0 2.5879 l-8.1836 0 l0 -14.111 l8.1836 0 l0 2.5781 z M63.4375 20 l4.1211 -5.0293 l-4.1211 -5.0098 l3.5156 0 l2.3047 3.1641 l2.3242 -3.1641 l3.4863 0 l-4.1309 5.0195 l4.1309 5.0195 l-3.4863 0 l-2.3047 -3.1445 l-2.3145 3.1445 l-3.5254 0 z M81.15235 20.18555 c-3.1543 0 -5.3809 -2.0996 -5.3809 -5.2148 c0 -3.125 2.2266 -5.2051 5.3809 -5.2051 c2.5391 0 4.4434 1.3184 4.9316 3.6914 l-2.5977 0.2832 c-0.3125 -1.2012 -1.1816 -1.7578 -2.3633 -1.7578 c-1.5137 0 -2.5391 1.1914 -2.5391 2.9883 c0 1.7871 1.0254 2.9883 2.5391 2.9883 c1.1816 0 2.0508 -0.56641 2.3633 -1.7578 l2.5977 0.2832 c-0.48828 2.373 -2.4414 3.7012 -4.9316 3.7012 z M94.160159375 9.766 c2.2461 0 3.5938 1.25 3.5938 3.7598 l0 6.4746 l-2.8223 0 l0 -6.0156 c0 -1.4746 -0.82031 -1.9629 -1.8262 -1.9629 c-1.0449 0 -2.1875 0.51758 -2.207 2.4414 l0 5.5371 l-2.8125 0 l0 -15 l2.8125 0 l0 6.1621 c0.71289 -0.86914 1.8359 -1.3965 3.2617 -1.3965 z M108.69140625 17.2754 c0 1.2305 0.11719 2.0117 0.24414 2.4512 l0 0.27344 l-2.627 0 l-0.22461 -1.0938 c-0.75195 0.9082 -2.0508 1.2891 -3.2227 1.2891 c-1.582 0 -3.125 -0.70313 -3.125 -2.793 c0 -2.0801 1.5527 -2.7832 3.6523 -3.2422 l1.6504 -0.37109 c0.71289 -0.16602 0.9668 -0.41016 0.9668 -0.82031 c0 -0.98633 -0.89844 -1.2598 -1.6895 -1.2598 c-1.0156 0 -1.7871 0.40039 -1.9629 1.5332 l-2.4902 -0.44922 c0.41992 -2.0801 1.9434 -3.0273 4.6094 -3.0273 c2.0117 0 4.2188 0.5957 4.2188 3.623 l0 3.8867 z M103.74020625 18.291 c1.3379 0 2.4121 -0.88867 2.4121 -2.8809 l-2.3828 0.67383 c-0.78125 0.18555 -1.3477 0.45898 -1.3477 1.1328 c0 0.72266 0.5957 1.0742 1.3184 1.0742 z M117.353503125 9.766 c2.4121 0 3.7402 1.25 3.7402 3.4766 l0 6.7578 l-2.8223 0 l0 -6.1523 c0 -1.3379 -0.83008 -1.8262 -1.7969 -1.8262 c-1.1621 0 -2.2168 0.58594 -2.2363 2.4414 l0 5.5371 l-2.8125 0 l0 -10.039 l2.8125 0 l0 1.1133 c0.70313 -0.83008 1.7871 -1.3086 3.1152 -1.3086 z M130.73238125 9.961 l2.6758 0 l0 9.2871 c0 3.9063 -2.1191 5.4883 -5.3223 5.4883 c-2.8809 0 -4.4434 -1.2109 -5.1758 -3.1152 l2.334 -0.99609 c0.56641 1.2988 1.3867 1.9238 2.7344 1.9238 c1.7773 0 2.6074 -1.1133 2.6074 -3.0957 l0 -1.1719 c-0.58594 0.80078 -1.7383 1.3672 -3.0469 1.3672 c-2.4902 0 -4.5801 -1.9629 -4.5801 -4.9609 c0 -3.0078 2.0996 -4.9219 4.5996 -4.9219 c1.4063 0 2.5586 0.625 3.1055 1.5234 z M128.26168125 17.373 c1.4648 0 2.5977 -1.1914 2.5977 -2.6855 c0 -1.5039 -1.1133 -2.6953 -2.5977 -2.6953 c-1.4746 0 -2.5879 1.1426 -2.5879 2.6953 c0 1.5332 1.1328 2.6855 2.5879 2.6855 z M145.771046875 14.834 l-0.029297 0.67383 l-7.4414 0 c0.11719 1.6699 1.2305 2.4707 2.5684 2.4707 c1.0059 0 1.7871 -0.46875 2.168 -1.3574 l2.5781 0.38086 c-0.66406 2.0313 -2.4707 3.1934 -4.7266 3.1934 c-3.2422 0 -5.3613 -1.9141 -5.3613 -5.2148 s2.1777 -5.2344 5.2734 -5.2344 c2.8418 0 4.9609 1.5723 4.9707 5.0879 z M140.820346875 11.7383 c-1.2793 0 -2.168 0.5957 -2.4414 1.9336 l4.6094 0 c-0.14648 -1.2793 -1.0156 -1.9336 -2.168 -1.9336 z"></path></g>
			</g>
		</svg>
	